PathFileType	4	(X/Y/Z)	OpenSim_Sub01_EMGBaseline_Accel.trc
DataRate	CameraRate	NumFrames	NumMarkers	Units	OrigDataRate	OrigDataStartFrame	OrigNumFrames
100	100	24	8	m	100	2852	7604
Frame#	Time	torso_imu_offset_imu	pelvis_imu_offset_imu	tibia_r_imu_offset_imu	femur_r_imu_offset_imu	tibia_l_imu_offset_imu	femur_l_imu_offset_imu	toes_r_imu_offset_imu	toes_l_imu_offset_imu
				X1	Y1	Z1	X2	Y2	Z2	X3	Y3	Z3	X4	Y4	Z4	X5	Y5	Z5	X6	Y6	Z6	X7	Y7	Z7	X8		Y8	Z8	

2852	28.51000000	8.45137890	0.04235431	5.85878790	9.11528349	-0.77709378	2.28175629	5.88693342	5.16086374	1.34410844	7.61133138	1.48348488	1.56374768	9.60328912	-1.82786975	-0.42006545	9.61775674	1.80034450	-1.85857354	10.85071553	0.93319222	8.46976004	5.30213115	0.85122697	10.89449051
2853	28.52000000	8.51954664	0.09967774	5.81064721	9.06587594	-0.57837611	2.30305190	6.72347107	4.83721971	0.99450404	7.58428389	1.63733042	1.63531190	9.50963193	-2.30118674	-0.44538797	9.53660830	1.88517499	-1.79816733	11.93101296	0.71688420	8.68369131	5.36170544	0.82334086	10.86569307
2854	28.53000000	8.57439628	0.11999682	5.74538730	9.02437108	-0.45752699	2.29596212	7.65839839	4.81783938	0.86221455	7.51099894	1.66180657	1.74649079	9.51975819	-2.86743230	-0.57946072	9.46564989	1.96852856	-1.70230240	12.77493326	0.35107615	8.86318008	5.47146652	0.79154545	10.83540326
2855	28.54000000	8.63112747	0.12152999	5.70831726	8.98354467	-0.41925269	2.26127286	8.53904312	5.07906116	0.90676287	7.44389756	1.53593324	1.88071766	9.55127682	-3.29567570	-0.73417780	9.40252529	2.09778841	-1.58275746	13.47602863	-0.22998021	9.02105165	5.57359141	0.78300933	10.81908739
2856	28.55000000	8.70607777	0.12961836	5.74707838	8.93316509	-0.45281494	2.20420619	9.20528222	5.56349388	1.04699762	7.44991753	1.24456517	2.01986908	9.49854694	-3.35929776	-0.80386470	9.33308467	2.31112648	-1.44894520	14.17106424	-1.09401377	9.18946367	5.60666117	0.82252619	10.83009808
2857	28.56000000	8.78481654	0.15367911	5.84345211	8.88839678	-0.53695759	2.12965325	9.62620365	5.98428156	1.22260052	7.54532756	0.82903680	2.12312307	9.36939061	-3.07501169	-0.76500628	9.25609389	2.51035284	-1.30871020	14.87317380	-2.19523228	9.26749494	5.59010956	0.88587759	10.85398178
2858	28.57000000	8.82924085	0.19087145	5.92853737	8.88393887	-0.64232548	2.04225500	9.87037882	5.87807810	1.38930010	7.70740060	0.37413658	2.13221550	9.25895115	-2.64683225	-0.65733587	9.18026210	2.49237725	-1.16870146	15.50036161	-3.40046484	9.05184194	5.60557843	0.91113846	10.85489375
2859	28.58000000	8.81808745	0.23843182	5.95407558	8.93482334	-0.73632515	1.95271530	10.03089302	4.97914712	1.51570865	7.92489182	-0.06635737	2.02996237	9.23446630	-2.26216057	-0.52491406	9.11556118	2.14601608	-1.05085412	16.02431061	-4.58776397	8.41891416	5.69327958	0.86586982	10.81498282
2860	28.59000000	8.78194019	0.29476309	5.93701963	8.99614959	-0.77735985	1.88977261	10.26606862	3.62242411	1.60749510	8.22365547	-0.53413307	1.92257905	9.27358007	-2.04471519	-0.41982517	9.07495507	1.64119703	-1.02261625	16.58347680	-5.67521038	7.48980765	5.76556376	0.80813048	10.77149950
2861	28.60000000	8.75923990	0.35845061	5.90547636	9.01501392	-0.72452415	1.88211168	10.73278693	2.25420389	1.66263370	8.63273789	-1.08985752	1.92789707	9.33897048	-2.09668653	-0.39255302	9.07190233	1.19541237	-1.15213835	17.32300393	-6.56736960	6.42762865	5.71972841	0.80793635	10.76880846
2862	28.61000000	8.76255972	0.42758323	5.87404685	8.98456097	-0.57216404	1.90772229	11.38589357	1.32533562	1.46144932	9.12631644	-1.81408007	1.99618513	9.41723398	-2.37431331	-0.44743686	9.11898547	0.96018848	-1.39217357	18.02673974	-6.85584487	5.34717410	5.58154607	0.86386253	10.80528904
2863	28.62000000	8.78456705	0.49986586	5.84693655	8.93338211	-0.34177394	1.90559569	12.02470548	1.28998021	0.61700652	9.63630753	-2.80260414	1.94878395	9.51337880	-2.72149233	-0.55329247	9.22809961	1.03621412	-1.60667473	18.20067342	-5.89168340	4.32596337	5.47565254	0.91950163	10.84393266
2864	28.63000000	8.82697779	0.57063906	5.82965896	8.88909272	-0.07129663	1.84886280	12.44298840	2.34471961	-0.88155056	10.06336540	-4.08346635	1.68630266	9.63196702	-2.99510337	-0.67636422	9.39391327	1.44729196	-1.70084974	17.69904409	-3.50137641	3.32244205	5.47989528	0.93399408	10.86231941
2865	28.64000000	8.91991638	0.62824739	5.83240885	8.87369880	0.15452527	1.81507885	12.42990095	3.92050698	-1.91480224	10.21848149	-5.48217357	1.35474490	9.77482781	-3.09919112	-0.77797102	9.55996013	1.99264939	-1.70928015	17.43212644	-0.94254667	1.94408686	5.52553722	0.91688217	10.88408343
2866	28.65000000	9.09466313	0.66130859	5.86568261	8.90721604	0.24933511	1.89488628	11.79361460	5.30884868	-1.27278672	9.92228250	-6.78704040	1.13637898	9.94134418	-2.95588694	-0.82197158	9.66211121	2.43900436	-1.68860590	18.41620343	0.38025371	-0.22864570	5.52245812	0.88618205	10.93878975
2867	28.66000000	9.32120382	0.68188216	5.93153951	8.99539697	0.23209332	2.08586894	10.63953456	5.83276573	0.48241810	9.38761250	-7.79015746	1.07723582	10.10185775	-2.62747455	-0.82385360	9.66304256	2.68790663	-1.66762332	20.33231612	0.82308732	-3.04867334	5.46609645	0.84727154	11.01734271
2868	28.67000000	9.52235582	0.72006185	6.02553793	9.13300648	0.20280147	2.31397756	9.30189088	4.83994871	1.42519300	9.12905415	-8.28656953	1.11845320	10.20438423	-2.28408604	-0.83882457	9.54609641	2.74472103	-1.65369374	21.83388778	2.09662886	-5.93273166	5.41773923	0.79580165	11.08089737
2869	28.68000000	9.64125044	0.79148374	6.13514874	9.30408658	0.22088146	2.50806004	8.13896371	2.22215567	0.36239528	9.41528056	-8.13424196	1.17551460	10.23640866	-2.04396843	-0.89087148	9.33710687	2.64567017	-1.65239319	21.88499198	5.00074555	-8.29638988	5.42076286	0.73019861	11.10546635
2870	28.69000000	9.68498556	0.86744560	6.22430837	9.46165694	0.21898144	2.61104817	7.56300586	-0.51408711	-1.61839865	9.76120065	-7.37787782	1.09569126	10.30440260	-1.86295282	-0.90817603	9.18658959	2.51073303	-1.66563115	20.45132160	7.52537165	-9.58509106	5.46029062	0.65787840	11.11348426
2871	28.70000000	9.67624643	0.91198301	6.25666416	9.55640956	0.11139723	2.57167849	7.95790284	-1.67845514	-3.05344556	9.58960435	-6.10195632	0.72960010	10.52814316	-1.67402398	-0.80687840	9.25736495	2.46795399	-1.69340067	17.69185922	7.29365908	-9.26487487	5.50925301	0.58798103	11.13603594
2872	28.71000000	9.69399272	0.90312618	6.25664379	9.59002836	-0.11147155	2.38658161	9.13376981	-1.29758785	-3.15986236	9.03013860	-4.46953003	0.16662310	10.89733064	-1.51762809	-0.58797956	9.55144658	2.53435452	-1.71716219	13.88687213	4.21406869	-7.02732409	5.51929269	0.53057346	11.20521663
2873	28.72000000	9.86045355	0.82968519	6.29544044	9.60345594	-0.40062346	2.08928944	10.45916495	-0.71962032	-1.67919693	8.75639504	-2.70413915	-0.32008742	11.30155067	-1.51689372	-0.31779568	9.94708039	2.64149483	-1.70411430	9.41025402	-0.04573401	-2.73804673	5.42570116	0.49643313	11.35387332
2874	28.73000000	10.23158559	0.68972505	6.41446647	9.64529727	-0.68309675	1.75724374	11.46720728	-1.02605465	1.23082106	9.19685304	-1.03313736	-0.49431603	11.65257417	-1.74180991	-0.04986648	10.34806972	2.72466946	-1.62720399	4.98479536	-3.81357679	3.19975285	5.21138987	0.49226621	11.58038832
2875	28.74000000	10.66311483	0.50798711	6.56306829	9.78392479	-0.81921272	1.59554035	12.21374593	-2.40510508	4.21589552	10.01008363	0.30941354	-0.24364906	11.93574625	-2.09814584	0.20522477	10.74361997	2.73680138	-1.47754932	2.36284983	-5.53836134	8.79874668	5.00201917	0.51262701	11.78067722
